<svg id="layer" xmlns="http://www.w3.org/2000/svg" viewBox="0 0 460.67 220.89"><defs><style>.cls-1{fill:#fff;stroke-width:4px;}.cls-1,.cls-2,.cls-3,.cls-4{stroke:#000;stroke-miterlimit:10;}.cls-2{fill:none;}.cls-2,.cls-3,.cls-4{stroke-width:2px;}.cls-3{fill:#c1272d;}.cls-4{fill:#ccc;}</style></defs><rect class="cls-1" x="2" y="2" width="456.67" height="216.89" rx="4"/><rect class="cls-2" x="45.94" y="21.66" width="25" height="25"/><rect class="cls-2" x="26.94" y="58.88" width="25" height="25"/><rect class="cls-3" x="26.94" y="172.83" width="55" height="25"/><rect class="cls-4" x="91.94" y="172.83" width="25" height="25"/><rect class="cls-2" x="126.94" y="172.83" width="173.17" height="25"/><rect class="cls-2" x="345.11" y="172.83" width="55" height="25"/><rect class="cls-2" x="61.94" y="58.88" width="25" height="25"/><rect class="cls-2" x="96.94" y="58.88" width="25" height="25"/><rect class="cls-2" x="131.94" y="58.88" width="25" height="25"/><rect class="cls-2" x="306.94" y="58.88" width="25" height="25"/><rect class="cls-2" x="341.94" y="58.88" width="25" height="25"/><rect class="cls-2" x="376.94" y="58.88" width="25" height="25"/><rect class="cls-2" x="371.94" y="96.84" width="25" height="25"/><rect class="cls-2" x="336.94" y="96.84" width="25" height="25"/><rect class="cls-2" x="26.94" y="96.96" width="55" height="24.76"/><rect class="cls-2" x="91.94" y="96.84" width="25" height="25"/><rect class="cls-2" x="126.94" y="96.84" width="25" height="25"/><rect class="cls-4" x="96.94" y="134.77" width="25" height="25"/><rect class="cls-2" x="131.94" y="134.77" width="25" height="25"/><polygon class="cls-2" points="410.11 94.23 435.11 94.23 435.11 160.04 410.11 160.04 379.35 160.04 379.35 135.04 410.11 135.04 410.11 94.23"/><rect class="cls-2" x="310.11" y="172.83" width="25" height="25"/><rect class="cls-2" x="201.94" y="58.88" width="25" height="25"/><rect class="cls-2" x="196.94" y="96.84" width="25" height="25"/><rect class="cls-2" x="201.94" y="134.77" width="25" height="25"/><rect class="cls-2" x="236.94" y="58.88" width="25" height="25"/><rect class="cls-2" x="231.94" y="96.84" width="25" height="25"/><rect class="cls-2" x="236.94" y="134.77" width="25" height="25"/><rect class="cls-2" x="271.94" y="58.88" width="25" height="25"/><rect class="cls-2" x="266.94" y="96.84" width="25" height="25"/><rect class="cls-2" x="271.94" y="134.77" width="25" height="25"/><rect class="cls-2" x="306.94" y="135.04" width="25" height="25"/><rect class="cls-2" x="341.94" y="135.04" width="25" height="25"/><rect class="cls-2" x="410.11" y="172.83" width="25" height="25"/><rect class="cls-2" x="104.5" y="21.66" width="25" height="25"/><rect class="cls-2" x="143.5" y="21.66" width="25" height="25"/><rect class="cls-2" x="182.5" y="21.66" width="25" height="25"/><rect class="cls-3" x="166.94" y="58.88" width="25" height="25"/><rect class="cls-2" x="161.94" y="96.84" width="25" height="25"/><rect class="cls-2" x="166.94" y="134.77" width="25" height="25"/><rect class="cls-2" x="301.94" y="96.84" width="25" height="25"/><rect class="cls-2" x="410.11" y="21.66" width="25" height="25"/><rect class="cls-2" x="281.5" y="21.66" width="25" height="25"/><rect class="cls-2" x="320.5" y="21.66" width="25" height="25"/><rect class="cls-2" x="242.5" y="21.66" width="25" height="25"/><rect class="cls-2" x="26.94" y="135.04" width="25" height="25"/><rect class="cls-2" x="61.94" y="134.77" width="25" height="25"/></svg>