<svg id="layer0" xmlns="http://www.w3.org/2000/svg" viewBox="0 0 461.94 201"><defs><style>.cls-1,.cls-2{fill:none;stroke:#626054;stroke-linecap:square;stroke-width:6px;}.cls-1{stroke-miterlimit:10;}.cls-2{stroke-linejoin:bevel;}.cls-3{font-size:92px;fill:#cc6352;font-family:MicrosoftYaHeiUI, Microsoft YaHei UI;text-decoration:line-through;}</style></defs><title>logo</title><polyline class="cls-1" points="293 198 192.34 198 3 198 3 68.39 3 3"/><line class="cls-1" x1="323" y1="153" x2="323" y2="198"/><polyline class="cls-1" points="392 153 352 153 352 198"/><line class="cls-2" x1="352" y1="175.69" x2="392" y2="175.69"/><polyline class="cls-1" points="458.22 153 419.78 153 419.78 198 458.22 198"/><path class="cls-1" d="M499.22,163.43" transform="translate(-41 -30.43)"/><line class="cls-2" x1="419.78" y1="175.69" x2="458.22" y2="175.69"/><polyline class="cls-1" points="458.94 103 458.94 3 99.11 3"/><text class="cls-3" transform="translate(19.74 137.04)">Ctrl+Z</text><polyline class="cls-1" points="71.55 3 33.12 3 33.12 48 71.55 48"/><line class="cls-2" x1="33.12" y1="25.69" x2="71.55" y2="25.69"/></svg>